<svg version="1.1" id="Layer_1" xmlns="http://www.w3.org/2000/svg" xmlns:xlink="http://www.w3.org/1999/xlink" x="0px" y="0px"
	 width="100%" viewBox="0 0 500 500" enable-background="new 0 0 500 500" xml:space="preserve">
<path fill="#000000" opacity="1.000000" stroke="none" 
	d="
M464.000000,501.000000 
	C309.333374,501.000000 155.166733,501.000000 1.000083,501.000000 
	C1.000055,334.333405 1.000055,167.666824 1.000028,1.000172 
	C167.666550,1.000115 334.333099,1.000115 500.999756,1.000057 
	C500.999817,167.666519 500.999817,334.333038 500.999908,500.999756 
	C488.833344,501.000000 476.666656,501.000000 464.000000,501.000000 
M316.990631,279.936371 
	C316.647003,284.658752 319.585541,284.210846 322.798096,283.746643 
	C322.798096,281.796021 322.798096,280.057037 322.798096,277.540192 
	C320.506744,278.216980 318.606201,278.778351 316.969513,278.554016 
	C317.760956,276.222107 318.552399,273.890228 319.526611,271.019775 
	C313.222137,271.232422 307.391815,269.261444 303.805786,275.584137 
	C303.326294,276.429565 301.585205,276.852753 300.386414,276.948883 
	C293.090363,277.534058 289.072723,273.748016 288.481842,265.915588 
	C288.129425,261.244080 291.341003,255.650177 295.204193,254.008621 
	C300.260651,251.860016 303.413666,254.704300 306.582092,258.003967 
	C307.522491,258.983337 309.055420,259.772156 310.393829,259.912140 
	C313.170563,260.202515 315.998901,259.999817 318.970551,259.999817 
	C318.970551,258.774445 319.183868,257.879517 318.939026,257.135345 
	C314.067139,242.327499 296.279327,239.258743 284.929108,247.609116 
	C277.040802,253.412552 275.794556,261.923035 277.153015,270.685944 
	C278.674957,280.503479 288.063934,286.974854 296.278687,287.214081 
	C304.617065,287.456879 311.319519,285.251465 316.990631,279.936371 
M117.960999,285.283966 
	C110.788033,265.869171 103.615067,246.454361 96.493782,227.179443 
	C81.091240,227.225449 85.094261,224.211243 79.880844,238.290573 
	C79.766586,238.599136 79.526215,238.861176 79.413338,239.169998 
	C73.754181,254.653336 68.102531,270.139404 62.313324,285.999786 
	C63.951130,285.999786 65.105911,285.992340 66.260574,286.000946 
	C74.699318,286.063843 74.972588,286.143951 77.278366,278.175995 
	C78.530945,273.847534 80.682167,272.502106 85.003769,272.918365 
	C90.256668,273.424377 96.262169,271.889832 100.609032,273.993103 
	C103.490532,275.387329 104.032562,281.616669 105.729828,285.957611 
	C109.766441,285.957611 113.907967,285.957611 117.965202,286.790527 
	C115.386864,294.514862 117.439346,301.031342 124.041023,303.339081 
	C128.595459,304.931183 133.639725,305.893250 138.443558,305.815063 
	C145.193192,305.705139 151.718521,303.499420 154.861221,296.813690 
	C159.200974,287.581329 152.588409,278.546783 141.699661,277.944855 
	C137.888885,277.734222 134.114334,276.868103 130.323242,276.301331 
	C130.091873,275.618866 129.860504,274.936401 129.629135,274.253906 
	C145.557846,274.986450 156.946472,271.128754 153.376434,252.344315 
	C155.333252,252.054199 157.065216,251.797424 158.686157,251.557098 
	C158.686157,248.931442 158.686157,246.679459 158.686157,243.905243 
	C152.593063,243.905243 146.652649,244.725891 141.048065,243.704239 
	C133.490067,242.326492 127.112885,243.650955 122.401344,249.459778 
	C118.038971,254.838104 118.912979,263.212708 123.498924,269.757599 
	C115.470184,278.648560 115.470184,278.648560 120.622955,282.634827 
	C119.738182,283.769470 118.851830,284.906128 117.960999,285.283966 
M261.959381,274.234650 
	C254.306473,280.780365 248.119873,278.766418 243.151627,268.253784 
	C239.449768,268.253784 235.829926,268.253784 232.235779,268.253784 
	C231.699127,276.582001 236.129639,283.732300 244.183212,285.801971 
	C249.179153,287.085876 254.630463,287.081726 259.849945,286.893829 
	C266.981628,286.637085 273.756592,280.412079 274.973816,273.819519 
	C276.567871,265.186066 273.555542,258.608612 265.925903,255.043655 
	C260.386993,252.455566 254.511612,250.571686 249.046127,247.851669 
	C247.295120,246.980225 245.030380,244.091034 245.379974,242.741272 
	C245.948792,240.545090 248.118820,238.039062 250.244919,237.110519 
	C255.973282,234.608749 259.133392,236.734650 261.489136,243.767334 
	C265.598785,243.767334 269.708435,243.767334 273.953857,243.767334 
	C273.243683,235.911591 269.816193,230.008209 262.278900,227.980057 
	C257.783875,226.770538 252.799805,226.794952 248.088974,227.097092 
	C239.353241,227.657379 233.964844,233.938492 233.031158,242.128494 
	C232.208527,249.344345 237.331650,256.267548 245.309311,258.973572 
	C248.514099,260.060608 251.872803,260.760925 254.969421,262.085968 
	C261.442963,264.856049 264.929169,268.373993 261.959381,274.234650 
M413.009186,281.512573 
	C419.366486,288.992401 427.997162,287.939636 435.855377,286.276398 
	C441.976471,284.980865 446.806885,280.423035 448.228607,272.338867 
	C443.405945,273.062164 438.413025,272.420563 435.321381,274.545410 
	C427.282593,280.070312 420.372406,277.941956 418.282257,267.888367 
	C428.789490,267.888367 439.228607,267.888367 449.605316,267.888367 
	C451.333313,256.319550 443.470978,247.004791 437.887085,244.992355 
	C425.188232,240.415649 415.109589,244.904053 410.283813,252.428055 
	C404.603149,261.284821 405.758606,274.251160 413.009186,281.512573 
M193.532776,282.014099 
	C200.534866,287.732849 208.623642,288.562439 216.776474,285.933350 
	C225.061050,283.261841 230.916794,276.360901 230.054153,262.599121 
	C229.556503,254.660126 223.629700,246.715866 215.794464,244.367035 
	C206.764297,241.660004 195.713486,244.798859 191.320633,251.318573 
	C184.983673,260.723663 185.642273,272.545197 193.532776,282.014099 
M332.065674,247.407867 
	C325.721802,253.597855 321.801819,260.381653 323.879028,269.934479 
	C326.726654,283.030334 339.621307,290.578308 351.913544,287.496918 
	C366.710022,283.787750 374.135773,268.298645 366.504822,253.969894 
	C363.747986,248.793350 364.480865,247.165131 369.785278,247.102859 
	C373.586609,247.058228 375.184906,244.848984 374.751862,242.026627 
	C374.466827,240.168961 372.100616,237.668060 370.246704,237.229630 
	C367.132690,236.493195 365.396942,238.816193 364.967651,242.075958 
	C364.262146,247.433090 363.076141,248.134842 358.562805,245.839127 
	C349.680450,241.321182 341.067688,241.681900 332.065674,247.407867 
M225.159180,208.383408 
	C209.326370,212.597733 203.950455,227.363907 205.784149,240.725922 
	C229.775955,241.603607 239.311676,229.249878 239.591568,206.664856 
	C234.982834,207.144180 230.460220,207.614548 225.159180,208.383408 
M380.000000,255.519196 
	C380.000000,265.593933 380.000000,275.668671 380.000000,285.684143 
	C384.322998,285.684143 388.047028,285.684143 392.000000,285.684143 
	C392.000000,279.738892 391.998596,274.107635 392.000305,268.476410 
	C392.002991,259.686951 393.519226,257.841858 402.097565,255.924042 
	C403.759796,255.552399 405.355103,254.881195 406.799683,254.407684 
	C406.799683,250.513382 406.799683,246.887360 406.799683,241.605637 
	C401.255310,244.329742 396.521912,246.655411 391.477295,249.133972 
	C391.252289,247.823914 390.941254,246.013306 390.595428,244.000000 
	C388.808136,244.000000 387.159973,244.000000 385.511810,244.000000 
	C383.755798,244.000000 381.999786,244.000000 380.000000,244.000000 
	C380.000000,247.920776 380.000000,251.223480 380.000000,255.519196 
M176.820267,246.054413 
	C175.445496,247.193787 174.070724,248.333160 172.602966,249.549591 
	C171.378723,243.472778 169.208298,242.609741 161.299973,244.806976 
	C161.299973,258.385376 161.299973,271.956238 161.299973,285.607361 
	C165.307495,285.607361 169.007141,285.607361 173.000595,285.607361 
	C173.000595,278.412506 172.965454,271.606964 173.012466,264.802032 
	C173.046036,259.942047 176.227341,256.569122 180.953094,255.965912 
	C183.313065,255.664673 185.627716,255.008133 187.661240,254.576355 
	C187.661240,250.427582 187.661240,246.839539 187.661240,242.334991 
	C183.905670,243.641357 180.726990,244.747070 176.820267,246.054413 
M188.704529,235.913269 
	C193.177612,237.531158 197.650696,239.149048 202.439957,240.881302 
	C203.637680,227.212692 194.339691,217.592514 183.237625,220.649170 
	C182.103317,226.461807 184.719574,231.097870 188.704529,235.913269 
M369.001282,278.493195 
	C370.188507,279.991608 371.329926,282.658966 372.574005,282.707703 
	C374.331635,282.776642 376.978577,281.299988 377.720154,279.752930 
	C378.364044,278.409576 377.327148,274.748474 376.264862,274.390350 
	C373.381317,273.418274 369.905518,273.272034 369.001282,278.493195 
M328.804565,246.028793 
	C328.893219,244.550522 329.286407,242.983078 328.894775,241.645416 
	C328.768616,241.214508 326.426239,241.008209 325.381470,241.419662 
	C324.684479,241.694138 323.922180,243.897552 324.166534,244.109177 
	C325.291595,245.083557 326.760071,245.661453 328.804565,246.028793 
z"/>
<path fill="#149D80" opacity="1.000000" stroke="none" 
	d="
M117.965469,286.042816 
	C118.851830,284.906128 119.738182,283.769470 120.622955,282.634827 
	C115.470184,278.648560 115.470184,278.648560 123.498924,269.757599 
	C118.912979,263.212708 118.038971,254.838104 122.401344,249.459778 
	C127.112885,243.650955 133.490067,242.326492 141.048065,243.704239 
	C146.652649,244.725891 152.593063,243.905243 158.686157,243.905243 
	C158.686157,246.679459 158.686157,248.931442 158.686157,251.557098 
	C157.065216,251.797424 155.333252,252.054199 153.376434,252.344315 
	C156.946472,271.128754 145.557846,274.986450 129.629135,274.253906 
	C129.860504,274.936401 130.091873,275.618866 130.323242,276.301331 
	C134.114334,276.868103 137.888885,277.734222 141.699661,277.944855 
	C152.588409,278.546783 159.200974,287.581329 154.861221,296.813690 
	C151.718521,303.499420 145.193192,305.705139 138.443558,305.815063 
	C133.639725,305.893250 128.595459,304.931183 124.041023,303.339081 
	C117.439346,301.031342 115.386864,294.514862 117.985756,286.394775 
	C118.006310,285.999054 117.965469,286.042816 117.965469,286.042816 
M143.997223,288.527435 
	C139.790604,287.701294 135.601105,286.467712 131.367264,286.289795 
	C130.044617,286.234253 127.990768,288.835510 127.438675,290.588165 
	C127.094704,291.680115 128.610703,293.928558 129.880447,294.816406 
	C131.535233,295.973450 133.727127,296.638336 135.768860,296.912842 
	C141.290970,297.655273 145.020889,294.203827 143.997223,288.527435 
M130.004944,258.599213 
	C130.020325,259.263824 129.770401,260.304382 130.093735,260.532532 
	C132.335892,262.114624 134.649231,264.573608 137.034637,264.683044 
	C139.159897,264.780548 142.257812,262.671173 143.318024,260.679504 
	C144.096191,259.217682 142.884735,255.828186 141.484695,254.254303 
	C138.473343,250.869064 132.465042,252.923935 130.004944,258.599213 
z"/>
<path fill="#149D80" opacity="1.000000" stroke="none" 
	d="
M118.027901,285.978333 
	C113.907967,285.957611 109.766441,285.957611 105.729828,285.957611 
	C104.032562,281.616669 103.490532,275.387329 100.609032,273.993103 
	C96.262169,271.889832 90.256668,273.424377 85.003769,272.918365 
	C80.682167,272.502106 78.530945,273.847534 77.278366,278.175995 
	C74.972588,286.143951 74.699318,286.063843 66.260574,286.000946 
	C65.105911,285.992340 63.951130,285.999786 62.313324,285.999786 
	C68.102531,270.139404 73.754181,254.653336 79.413338,239.169998 
	C79.526215,238.861176 79.766586,238.599136 79.880844,238.290573 
	C85.094261,224.211243 81.091240,227.225449 96.493782,227.179443 
	C103.615067,246.454361 110.788033,265.869171 117.963234,285.663391 
	C117.965469,286.042816 118.006310,285.999054 118.027901,285.978333 
M85.016289,263.978668 
	C89.109383,263.978668 93.202484,263.978668 97.877159,263.978668 
	C95.343864,256.789246 92.993431,250.118759 90.642998,243.448288 
	C90.245895,243.370667 89.848785,243.293060 89.451683,243.215439 
	C87.356499,249.799026 85.251503,256.379608 83.214813,262.981232 
	C83.155319,263.174042 83.817062,263.589386 85.016289,263.978668 
z"/>
<path fill="#FFBD59" opacity="1.000000" stroke="none" 
	d="
M262.030792,273.839050 
	C264.929169,268.373993 261.442963,264.856049 254.969421,262.085968 
	C251.872803,260.760925 248.514099,260.060608 245.309311,258.973572 
	C237.331650,256.267548 232.208527,249.344345 233.031158,242.128494 
	C233.964844,233.938492 239.353241,227.657379 248.088974,227.097092 
	C252.799805,226.794952 257.783875,226.770538 262.278900,227.980057 
	C269.816193,230.008209 273.243683,235.911591 273.953857,243.767334 
	C269.708435,243.767334 265.598785,243.767334 261.487579,243.764465 
	C259.133392,236.734650 255.973282,234.608749 250.244919,237.110519 
	C248.118820,238.039062 245.948792,240.545090 245.379974,242.741272 
	C245.030380,244.091034 247.295120,246.980225 249.046127,247.851669 
	C254.511612,250.571686 260.386993,252.455566 265.925903,255.043655 
	C273.555542,258.608612 276.567871,265.186066 274.973816,273.819519 
	C273.756592,280.412079 266.981628,286.637085 259.849945,286.893829 
	C254.630463,287.081726 249.179153,287.085876 244.183212,285.801971 
	C236.129639,283.732300 231.699127,276.582001 232.235779,268.253784 
	C235.829926,268.253784 239.449768,268.253784 243.151627,268.253784 
	C248.119873,278.766418 254.306473,280.780365 262.030792,273.839050 
z"/>
<path fill="#FFBD59" opacity="1.000000" stroke="none" 
	d="
M412.748047,281.251678 
	C405.758606,274.251160 404.603149,261.284821 410.283813,252.428055 
	C415.109589,244.904053 425.188232,240.415649 437.887085,244.992355 
	C443.470978,247.004791 451.333313,256.319550 449.605316,267.888367 
	C439.228607,267.888367 428.789490,267.888367 418.282257,267.888367 
	C420.372406,277.941956 427.282593,280.070312 435.321381,274.545410 
	C438.413025,272.420563 443.405945,273.062164 448.228607,272.338867 
	C446.806885,280.423035 441.976471,284.980865 435.855377,286.276398 
	C427.997162,287.939636 419.366486,288.992401 412.748047,281.251678 
M423.915649,254.013626 
	C422.073029,255.973602 420.230438,257.933563 417.528137,260.807983 
	C425.375885,260.807983 431.411987,260.807983 437.493683,260.807983 
	C435.745636,253.837738 431.866577,251.766403 423.915649,254.013626 
z"/>
<path fill="#149D80" opacity="1.000000" stroke="none" 
	d="
M193.267395,281.756500 
	C185.642273,272.545197 184.983673,260.723663 191.320633,251.318573 
	C195.713486,244.798859 206.764297,241.660004 215.794464,244.367035 
	C223.629700,246.715866 229.556503,254.660126 230.054153,262.599121 
	C230.916794,276.360901 225.061050,283.261841 216.776474,285.933350 
	C208.623642,288.562439 200.534866,287.732849 193.267395,281.756500 
M214.395432,275.065826 
	C219.459030,270.837067 218.873840,265.134827 217.156677,260.033051 
	C216.313278,257.527191 212.891174,254.995529 210.145050,254.224594 
	C205.543488,252.932739 201.918457,255.199509 199.973541,259.919922 
	C198.131653,264.390289 199.010086,271.724518 202.331406,274.750763 
	C205.853516,277.959900 209.813858,277.655060 214.395432,275.065826 
z"/>
<path fill="#FFBD59" opacity="1.000000" stroke="none" 
	d="
M316.862762,279.181549 
	C311.319519,285.251465 304.617065,287.456879 296.278687,287.214081 
	C288.063934,286.974854 278.674957,280.503479 277.153015,270.685944 
	C275.794556,261.923035 277.040802,253.412552 284.929108,247.609116 
	C296.279327,239.258743 314.067139,242.327499 318.939026,257.135345 
	C319.183868,257.879517 318.970551,258.774445 318.970551,259.999817 
	C315.998901,259.999817 313.170563,260.202515 310.393829,259.912140 
	C309.055420,259.772156 307.522491,258.983337 306.582092,258.003967 
	C303.413666,254.704300 300.260651,251.860016 295.204193,254.008621 
	C291.341003,255.650177 288.129425,261.244080 288.481842,265.915588 
	C289.072723,273.748016 293.090363,277.534058 300.386414,276.948883 
	C301.585205,276.852753 303.326294,276.429565 303.805786,275.584137 
	C307.391815,269.261444 313.222137,271.232422 319.526611,271.019775 
	C318.552399,273.890228 317.760956,276.222107 316.874268,278.904724 
	C316.778992,279.255463 316.862762,279.181549 316.862762,279.181549 
z"/>
<path fill="#FFBD59" opacity="1.000000" stroke="none" 
	d="
M332.344482,247.161331 
	C341.067688,241.681900 349.680450,241.321182 358.562805,245.839127 
	C363.076141,248.134842 364.262146,247.433090 364.967651,242.075958 
	C365.396942,238.816193 367.132690,236.493195 370.246704,237.229630 
	C372.100616,237.668060 374.466827,240.168961 374.751862,242.026627 
	C375.184906,244.848984 373.586609,247.058228 369.785278,247.102859 
	C364.480865,247.165131 363.747986,248.793350 366.504822,253.969894 
	C374.135773,268.298645 366.710022,283.787750 351.913544,287.496918 
	C339.621307,290.578308 326.726654,283.030334 323.879028,269.934479 
	C321.801819,260.381653 325.721802,253.597855 332.344482,247.161331 
M330.931885,267.639954 
	C332.101868,276.812439 339.424225,282.177887 349.157532,280.994690 
	C356.628113,280.086548 363.650482,272.124664 362.929565,265.074829 
	C361.821625,254.240433 352.551392,247.970078 344.864471,249.077606 
	C336.322784,250.308273 329.486572,257.504333 330.931885,267.639954 
z"/>
<path fill="#149D80" opacity="1.000000" stroke="none" 
	d="
M225.548386,208.234161 
	C230.460220,207.614548 234.982834,207.144180 239.591568,206.664856 
	C239.311676,229.249878 229.775955,241.603607 205.784149,240.725922 
	C203.950455,227.363907 209.326370,212.597733 225.548386,208.234161 
z"/>
<path fill="#FFBD59" opacity="1.000000" stroke="none" 
	d="
M380.000000,255.022705 
	C380.000000,251.223480 380.000000,247.920776 380.000000,244.000000 
	C381.999786,244.000000 383.755798,244.000000 385.511810,244.000000 
	C387.159973,244.000000 388.808136,244.000000 390.595428,244.000000 
	C390.941254,246.013306 391.252289,247.823914 391.477295,249.133972 
	C396.521912,246.655411 401.255310,244.329742 406.799683,241.605637 
	C406.799683,246.887360 406.799683,250.513382 406.799683,254.407684 
	C405.355103,254.881195 403.759796,255.552399 402.097565,255.924042 
	C393.519226,257.841858 392.002991,259.686951 392.000305,268.476410 
	C391.998596,274.107635 392.000000,279.738892 392.000000,285.684143 
	C388.047028,285.684143 384.322998,285.684143 380.000000,285.684143 
	C380.000000,275.668671 380.000000,265.593933 380.000000,255.022705 
z"/>
<path fill="#149D80" opacity="1.000000" stroke="none" 
	d="
M177.184296,245.953583 
	C180.726990,244.747070 183.905670,243.641357 187.661240,242.334991 
	C187.661240,246.839539 187.661240,250.427582 187.661240,254.576355 
	C185.627716,255.008133 183.313065,255.664673 180.953094,255.965912 
	C176.227341,256.569122 173.046036,259.942047 173.012466,264.802032 
	C172.965454,271.606964 173.000595,278.412506 173.000595,285.607361 
	C169.007141,285.607361 165.307495,285.607361 161.299973,285.607361 
	C161.299973,271.956238 161.299973,258.385376 161.299973,244.806976 
	C169.208298,242.609741 171.378723,243.472778 172.602966,249.549591 
	C174.070724,248.333160 175.445496,247.193787 177.184296,245.953583 
z"/>
<path fill="#149D80" opacity="1.000000" stroke="none" 
	d="
M188.385956,235.709488 
	C184.719574,231.097870 182.103317,226.461807 183.237625,220.649170 
	C194.339691,217.592514 203.637680,227.212692 202.439957,240.881302 
	C197.650696,239.149048 193.177612,237.531158 188.385956,235.709488 
z"/>
<path fill="#FFBD59" opacity="1.000000" stroke="none" 
	d="
M369.003540,278.081360 
	C369.905518,273.272034 373.381317,273.418274 376.264862,274.390350 
	C377.327148,274.748474 378.364044,278.409576 377.720154,279.752930 
	C376.978577,281.299988 374.331635,282.776642 372.574005,282.707703 
	C371.329926,282.658966 370.188507,279.991608 369.003540,278.081360 
z"/>
<path fill="#FFBD59" opacity="1.000000" stroke="none" 
	d="
M316.742310,279.297607 
	C318.606201,278.778351 320.506744,278.216980 322.798096,277.540192 
	C322.798096,280.057037 322.798096,281.796021 322.798096,283.746643 
	C319.585541,284.210846 316.647003,284.658752 316.926697,279.558960 
	C316.862762,279.181549 316.778992,279.255463 316.742310,279.297607 
z"/>
<path fill="#FFBD59" opacity="1.000000" stroke="none" 
	d="
M328.454956,246.205170 
	C326.760071,245.661453 325.291595,245.083557 324.166534,244.109177 
	C323.922180,243.897552 324.684479,241.694138 325.381470,241.419662 
	C326.426239,241.008209 328.768616,241.214508 328.894775,241.645416 
	C329.286407,242.983078 328.893219,244.550522 328.454956,246.205170 
z"/>
<path fill="#000000" opacity="1.000000" stroke="none" 
	d="
M144.270020,288.820343 
	C145.020889,294.203827 141.290970,297.655273 135.768860,296.912842 
	C133.727127,296.638336 131.535233,295.973450 129.880447,294.816406 
	C128.610703,293.928558 127.094704,291.680115 127.438675,290.588165 
	C127.990768,288.835510 130.044617,286.234253 131.367264,286.289795 
	C135.601105,286.467712 139.790604,287.701294 144.270020,288.820343 
z"/>
<path fill="#000000" opacity="1.000000" stroke="none" 
	d="
M130.012115,258.195496 
	C132.465042,252.923935 138.473343,250.869064 141.484695,254.254303 
	C142.884735,255.828186 144.096191,259.217682 143.318024,260.679504 
	C142.257812,262.671173 139.159897,264.780548 137.034637,264.683044 
	C134.649231,264.573608 132.335892,262.114624 130.093735,260.532532 
	C129.770401,260.304382 130.020325,259.263824 130.012115,258.195496 
z"/>
<path fill="#000000" opacity="1.000000" stroke="none" 
	d="
M84.579407,263.939819 
	C83.817062,263.589386 83.155319,263.174042 83.214813,262.981232 
	C85.251503,256.379608 87.356499,249.799026 89.451683,243.215439 
	C89.848785,243.293060 90.245895,243.370667 90.642998,243.448288 
	C92.993431,250.118759 95.343864,256.789246 97.877159,263.978668 
	C93.202484,263.978668 89.109383,263.978668 84.579407,263.939819 
z"/>
<path fill="#000000" opacity="1.000000" stroke="none" 
	d="
M424.304047,253.909821 
	C431.866577,251.766403 435.745636,253.837738 437.493683,260.807983 
	C431.411987,260.807983 425.375885,260.807983 417.528137,260.807983 
	C420.230438,257.933563 422.073029,255.973602 424.304047,253.909821 
z"/>
<path fill="#000000" opacity="1.000000" stroke="none" 
	d="
M214.108185,275.341644 
	C209.813858,277.655060 205.853516,277.959900 202.331406,274.750763 
	C199.010086,271.724518 198.131653,264.390289 199.973541,259.919922 
	C201.918457,255.199509 205.543488,252.932739 210.145050,254.224594 
	C212.891174,254.995529 216.313278,257.527191 217.156677,260.033051 
	C218.873840,265.134827 219.459030,270.837067 214.108185,275.341644 
z"/>
<path fill="#000000" opacity="1.000000" stroke="none" 
	d="
M330.695801,267.302277 
	C329.486572,257.504333 336.322784,250.308273 344.864471,249.077606 
	C352.551392,247.970078 361.821625,254.240433 362.929565,265.074829 
	C363.650482,272.124664 356.628113,280.086548 349.157532,280.994690 
	C339.424225,282.177887 332.101868,276.812439 330.695801,267.302277 
M359.000000,269.097961 
	C359.000000,265.505554 359.000000,261.913177 359.000000,258.250122 
	C356.452301,258.250122 354.402344,258.250122 352.379150,258.250122 
	C352.379150,264.953430 352.379150,271.401459 352.379150,277.849487 
	C352.862396,278.078705 353.345673,278.307922 353.828918,278.537140 
	C355.552551,275.686676 357.276154,272.836182 359.000000,269.097961 
M343.000000,274.359192 
	C343.069336,275.804871 343.138702,277.250549 343.209839,278.733826 
	C345.568512,278.733826 347.622681,278.733826 349.740784,278.733826 
	C349.740784,273.077942 349.740784,267.691803 349.740784,262.272034 
	C347.421112,262.272034 345.366638,262.272034 343.000000,262.272034 
	C343.000000,266.158234 343.000000,269.776794 343.000000,274.359192 
M335.695068,265.009644 
	C331.780212,269.061951 333.735535,274.260986 340.736511,277.864777 
	C340.736511,273.586273 340.736511,269.440002 340.736511,265.001160 
	C339.193665,265.001160 337.902588,265.001160 335.695068,265.009644 
z"/>
<path fill="#FFBD59" opacity="1.000000" stroke="none" 
	d="
M358.999878,269.541809 
	C357.276154,272.836182 355.552551,275.686676 353.828918,278.537140 
	C353.345673,278.307922 352.862396,278.078705 352.379150,277.849487 
	C352.379150,271.401459 352.379150,264.953430 352.379150,258.250122 
	C354.402344,258.250122 356.452301,258.250122 359.000000,258.250122 
	C359.000000,261.913177 359.000000,265.505554 358.999878,269.541809 
z"/>
<path fill="#FFBD59" opacity="1.000000" stroke="none" 
	d="
M343.000000,273.877258 
	C343.000000,269.776794 343.000000,266.158234 343.000000,262.272034 
	C345.366638,262.272034 347.421112,262.272034 349.740784,262.272034 
	C349.740784,267.691803 349.740784,273.077942 349.740784,278.733826 
	C347.622681,278.733826 345.568512,278.733826 343.209839,278.733826 
	C343.138702,277.250549 343.069336,275.804871 343.000000,273.877258 
z"/>
<path fill="#FFBD59" opacity="1.000000" stroke="none" 
	d="
M336.153320,265.005402 
	C337.902588,265.001160 339.193665,265.001160 340.736511,265.001160 
	C340.736511,269.440002 340.736511,273.586273 340.736511,277.864777 
	C333.735535,274.260986 331.780212,269.061951 336.153320,265.005402 
z"/>
</svg>